<svg width="65" height="65" viewBox="0 0 65 65" fill="none" xmlns="http://www.w3.org/2000/svg">
<rect width="65" height="65" rx="8" fill="#00866E"/>
<path d="M46.3332 34.6666C46.3332 42.9999 40.4998 47.1666 33.5665 49.5833C33.2034 49.7063 32.8091 49.7004 32.4498 49.5666C25.4998 47.1666 19.6665 42.9999 19.6665 34.6666V22.9999C19.6665 22.5579 19.8421 22.134 20.1547 21.8214C20.4672 21.5089 20.8911 21.3333 21.3332 21.3333C24.6665 21.3333 28.8332 19.3333 31.7332 16.7999C32.0863 16.4983 32.5354 16.3325 32.9998 16.3325C33.4642 16.3325 33.9134 16.4983 34.2665 16.7999C37.1832 19.3499 41.3332 21.3333 44.6665 21.3333C45.1085 21.3333 45.5325 21.5089 45.845 21.8214C46.1576 22.134 46.3332 22.5579 46.3332 22.9999V34.6666Z" stroke="white" stroke-width="3" stroke-linecap="round" stroke-linejoin="round"/>
</svg>
